<svg width="24" height="24" viewBox="0 0 24 24" fill="none" xmlns="http://www.w3.org/2000/svg">
<g clip-path="url(#clip0_6961_32969)">
<path d="M20.3953 8.00002C19.6529 8.00234 18.9293 8.25985 18.3237 8.73727C17.7181 9.21468 17.2602 9.88862 17.0127 10.6667H1.2034C0.885275 10.6667 0.580179 10.8072 0.35523 11.0572C0.130281 11.3073 0.00390625 11.6464 0.00390625 12C0.00390625 12.3536 0.130281 12.6928 0.35523 12.9428C0.580179 13.1929 0.885275 13.3333 1.2034 13.3333H17.0127C17.2328 14.0252 17.6198 14.6364 18.1314 15.1001C18.6431 15.5638 19.2596 15.8622 19.9136 15.9625C20.5675 16.0628 21.2337 15.9612 21.8392 15.6688C22.4446 15.3764 22.9661 14.9045 23.3465 14.3048C23.7269 13.7051 23.9515 13.0006 23.9958 12.2684C24.0401 11.5363 23.9024 10.8047 23.5976 10.1537C23.2929 9.50276 22.833 8.95751 22.2682 8.57765C21.7034 8.19779 21.0555 7.99796 20.3953 8.00002ZM20.3953 13.3333C20.1581 13.3333 19.9262 13.2551 19.7289 13.1086C19.5317 12.9621 19.3779 12.7539 19.2871 12.5103C19.1963 12.2666 19.1726 11.9985 19.2189 11.7399C19.2652 11.4813 19.3794 11.2437 19.5471 11.0572C19.7149 10.8707 19.9286 10.7437 20.1613 10.6923C20.394 10.6409 20.6352 10.6673 20.8543 10.7682C21.0735 10.8691 21.2609 11.04 21.3927 11.2593C21.5245 11.4785 21.5948 11.7363 21.5948 12C21.5948 12.3536 21.4684 12.6928 21.2435 12.9428C21.0185 13.1929 20.7134 13.3333 20.3953 13.3333Z" fill="white"/>
<path d="M1.20391 5.67589H2.61991C2.87215 6.3569 3.33226 6.9453 3.9377 7.36112C4.54315 7.77693 5.26456 8 6.00391 8C6.74325 8 7.46466 7.77693 8.07011 7.36112C8.67555 6.9453 9.13566 6.3569 9.38791 5.67589H22.8039C23.1222 5.67589 23.4274 5.552 23.6524 5.33148C23.8775 5.11096 24.0039 4.81186 24.0039 4.5C24.0039 4.18814 23.8775 3.88904 23.6524 3.66852C23.4274 3.448 23.1222 3.32411 22.8039 3.32411H9.38791C9.13566 2.6431 8.67555 2.0547 8.07011 1.63888C7.46466 1.22307 6.74325 1 6.00391 1C5.26456 1 4.54315 1.22307 3.9377 1.63888C3.33226 2.0547 2.87215 2.6431 2.61991 3.32411H1.20391C0.885646 3.32411 0.580422 3.448 0.355378 3.66852C0.130334 3.88904 0.00390625 4.18814 0.00390625 4.5C0.00390625 4.81186 0.130334 5.11096 0.355378 5.33148C0.580422 5.552 0.885646 5.67589 1.20391 5.67589ZM6.00391 3.32411C6.24124 3.32411 6.47325 3.39308 6.67059 3.52229C6.86793 3.65149 7.02174 3.83514 7.11256 4.05001C7.20339 4.26487 7.22715 4.5013 7.18085 4.7294C7.13455 4.9575 7.02026 5.16703 6.85243 5.33148C6.68461 5.49593 6.47079 5.60792 6.23801 5.65329C6.00524 5.69866 5.76396 5.67538 5.54469 5.58638C5.32542 5.49738 5.138 5.34666 5.00614 5.15329C4.87429 4.95991 4.80391 4.73257 4.80391 4.5C4.80391 4.18814 4.93033 3.88904 5.15538 3.66852C5.38042 3.448 5.68565 3.32411 6.00391 3.32411Z" fill="white"/>
<path d="M22.8039 18.3241H14.1879C13.9357 17.6431 13.4756 17.0547 12.8701 16.6389C12.2647 16.2231 11.5433 16 10.8039 16C10.0646 16 9.34315 16.2231 8.7377 16.6389C8.13226 17.0547 7.67215 17.6431 7.41991 18.3241H1.20391C0.885646 18.3241 0.580422 18.448 0.355378 18.6685C0.130334 18.889 0.00390625 19.1881 0.00390625 19.5C0.00390625 19.8119 0.130334 20.111 0.355378 20.3315C0.580422 20.552 0.885646 20.6759 1.20391 20.6759H7.41991C7.67215 21.3569 8.13226 21.9453 8.7377 22.3611C9.34315 22.7769 10.0646 23 10.8039 23C11.5433 23 12.2647 22.7769 12.8701 22.3611C13.4756 21.9453 13.9357 21.3569 14.1879 20.6759H22.8039C23.1222 20.6759 23.4274 20.552 23.6524 20.3315C23.8775 20.111 24.0039 19.8119 24.0039 19.5C24.0039 19.1881 23.8775 18.889 23.6524 18.6685C23.4274 18.448 23.1222 18.3241 22.8039 18.3241ZM10.8039 20.6759C10.5666 20.6759 10.3346 20.6069 10.1372 20.4777C9.93988 20.3485 9.78608 20.1649 9.69525 19.95C9.60443 19.7351 9.58066 19.4987 9.62696 19.2706C9.67327 19.0425 9.78756 18.833 9.95538 18.6685C10.1232 18.5041 10.337 18.3921 10.5698 18.3467C10.8026 18.3013 11.0439 18.3246 11.2631 18.4136C11.4824 18.5026 11.6698 18.6533 11.8017 18.8467C11.9335 19.0401 12.0039 19.2674 12.0039 19.5C12.0039 19.8119 11.8775 20.111 11.6524 20.3315C11.4274 20.552 11.1222 20.6759 10.8039 20.6759Z" fill="white"/>
</g>
<defs>
<clipPath id="clip0_6961_32969">
<rect width="24" height="24" fill="white"/>
</clipPath>
</defs>
</svg>
