<svg width="24" height="24" viewBox="0 0 24 24" fill="none" xmlns="http://www.w3.org/2000/svg">
<path d="M21.25 2H2.75C1.23 2 0 3.1685 0 4.6125V18.3875C0 19.8315 1.23 21 2.75 21H21.25C22.77 21 24 19.8315 24 18.3875V4.6125C24 3.1685 22.77 2 21.25 2ZM7.5 6.75H6C5.449 6.75 5 7.1756 5 7.7V9.125C5 9.37696 4.89464 9.61859 4.70711 9.79675C4.51957 9.97491 4.26522 10.075 4 10.075C3.73478 10.075 3.48043 9.97491 3.29289 9.79675C3.10536 9.61859 3 9.37696 3 9.125V7.7C3 6.1287 4.346 4.85 6 4.85H7.5C7.76522 4.85 8.01957 4.95009 8.20711 5.12825C8.39464 5.30641 8.5 5.54804 8.5 5.8C8.5 6.05196 8.39464 6.29359 8.20711 6.47175C8.01957 6.64991 7.76522 6.75 7.5 6.75ZM21 15.3C21 16.8713 19.654 18.15 18 18.15H16.5C16.2348 18.15 15.9804 18.0499 15.7929 17.8718C15.6054 17.6936 15.5 17.452 15.5 17.2C15.5 16.948 15.6054 16.7064 15.7929 16.5282C15.9804 16.3501 16.2348 16.25 16.5 16.25H18C18.551 16.25 19 15.8244 19 15.3V13.875C19 13.623 19.1054 13.3814 19.2929 13.2032C19.4804 13.0251 19.7348 12.925 20 12.925C20.2652 12.925 20.5196 13.0251 20.7071 13.2032C20.8946 13.3814 21 13.623 21 13.875V15.3Z" fill="white"/>
</svg>
